<svg width="14" height="12" viewBox="0 0 14 12" fill="none" xmlns="http://www.w3.org/2000/svg">
<path fill-rule="evenodd" clip-rule="evenodd" d="M4.89761 0.75H9.10174C9.74459 0.749994 10.2631 0.749989 10.6827 0.784839C11.1149 0.820727 11.4942 0.896566 11.8442 1.07838C12.3769 1.3551 12.8112 1.78945 13.088 2.32216C13.2698 2.67216 13.3456 3.05145 13.3815 3.48359C13.4164 3.90325 13.4163 4.42176 13.4163 5.06462V6.93538C13.4163 7.57824 13.4164 8.09675 13.3815 8.51641C13.3456 8.94855 13.2698 9.32784 13.088 9.67784C12.8112 10.2106 12.3769 10.6449 11.8442 10.9216C11.4942 11.1034 11.1149 11.1793 10.6827 11.2152C10.2631 11.25 9.74459 11.25 9.10172 11.25H4.89763C4.25476 11.25 3.73625 11.25 3.3166 11.2152C2.88446 11.1793 2.50517 11.1034 2.15517 10.9216C1.62246 10.6449 1.18811 10.2106 0.911386 9.67784C0.729574 9.32784 0.653735 8.94855 0.617847 8.51641C0.582997 8.09676 0.583002 7.57825 0.583008 6.9354V5.0646C0.583002 4.42175 0.582997 3.90324 0.617847 3.48359C0.653735 3.05145 0.729574 2.67216 0.911386 2.32216C1.18811 1.78945 1.62246 1.3551 2.15517 1.07838C2.50517 0.896566 2.88446 0.820727 3.3166 0.784839C3.73625 0.749989 4.25475 0.749994 4.89761 0.75ZM3.06377 1.99279C3.55881 2.10894 4.01836 2.3551 4.39228 2.71121L6.10657 4.34387C6.34365 4.56966 6.49652 4.71463 6.62184 4.81594C6.74154 4.91271 6.79788 4.93718 6.82908 4.94672C6.94027 4.98072 7.05908 4.98072 7.17027 4.94672C7.20146 4.93718 7.25781 4.91271 7.37751 4.81594C7.50283 4.71463 7.6557 4.56966 7.89278 4.34387L9.60707 2.71121C9.98099 2.3551 10.4405 2.10894 10.9356 1.99279C10.8376 1.97397 10.723 1.95886 10.5862 1.9475C10.2205 1.91714 9.75054 1.91667 9.07634 1.91667H4.92301C4.24881 1.91667 3.77883 1.91714 3.41316 1.9475C3.27635 1.95886 3.16179 1.97397 3.06377 1.99279ZM12.1392 3.08333H11.5934C11.1534 3.08333 10.7303 3.25259 10.4117 3.55603L8.6813 5.20401C8.46486 5.41015 8.27763 5.58848 8.11097 5.72321C7.93458 5.86581 7.74399 5.99127 7.51147 6.06238C7.1779 6.16439 6.82145 6.16439 6.48787 6.06238C6.25536 5.99127 6.06477 5.86581 5.88838 5.72321C5.72172 5.58848 5.53448 5.41014 5.31804 5.204L3.58768 3.55604C3.26906 3.25259 2.84592 3.08333 2.40592 3.08333H1.86017C1.82469 3.20971 1.79811 3.36824 1.78051 3.58015C1.75014 3.94583 1.74967 4.4158 1.74967 5.09V6.91C1.74967 7.5842 1.75014 8.05418 1.78051 8.41985C1.8103 8.77855 1.86581 8.98432 1.9467 9.14004C2.11273 9.45966 2.37334 9.72028 2.69297 9.88631C2.84869 9.9672 3.05446 10.0227 3.41316 10.0525C3.77883 10.0829 4.24881 10.0833 4.92301 10.0833H9.07634C9.75054 10.0833 10.2205 10.0829 10.5862 10.0525C10.9449 10.0227 11.1507 9.9672 11.3064 9.88631C11.626 9.72028 11.8866 9.45966 12.0526 9.14004C12.1335 8.98432 12.189 8.77855 12.2188 8.41985C12.2492 8.05418 12.2497 7.5842 12.2497 6.91V5.09C12.2497 4.4158 12.2492 3.94583 12.2188 3.58015C12.2012 3.36824 12.1747 3.20971 12.1392 3.08333Z" fill="#0F1729"/>
</svg>
