<svg width="13" height="13" viewBox="0 0 13 13" fill="none" xmlns="http://www.w3.org/2000/svg">
<path d="M11.9912 0H0.700523C0.313898 0 0 0.313273 0 0.700528V11.9913C0 12.3786 0.313898 12.6923 0.700523 12.6923H6.7791V7.77707H5.12518V5.86128H6.7791V4.44852C6.7791 2.80943 7.77994 1.91642 9.24242 1.91642C9.94357 1.91642 10.5448 1.96888 10.7202 1.99166V3.70494L9.70575 3.70536C8.91056 3.70536 8.75716 4.08342 8.75716 4.63786V5.86065H10.6543L10.4063 7.77623H8.75695V12.6916H11.991C12.3781 12.6916 12.6922 12.3775 12.6922 11.9913V0.70011C12.692 0.313273 12.3783 0 11.9912 0Z" fill="black"/>
</svg>
