<svg width="100" height="100" viewBox="0 0 100 100" fill="none" xmlns="http://www.w3.org/2000/svg">
<path fill-rule="evenodd" clip-rule="evenodd" d="M35.0373 16.4213C32.2386 14.3583 30.354 13.8925 29.3428 14.0899C25.1709 14.904 22.6979 16.5281 19.3474 19.8785C14.774 24.4519 12.5549 27.8667 13.5214 33.0444C14.6342 39.0055 20.0704 48.1035 35.0538 63.087C50.0362 78.0695 59.1892 83.5629 65.1837 84.699C67.9616 85.2256 70.0773 84.8139 71.9756 83.8789C74.0051 82.8794 75.9592 81.1968 78.2006 78.8575C80.1884 76.783 81.3947 75.3352 82.2387 73.9107C83.0428 72.5536 83.613 71.0531 84.0532 68.7994C84.2507 67.7882 83.7851 65.9035 81.7215 63.1043C79.7971 60.4939 77.0821 57.9013 74.5721 55.785C72.9158 54.3884 70.3533 54.2995 68.2834 55.8491L61.9569 60.585C56.2505 64.8569 48.2766 64.2449 43.242 59.2103L38.9306 54.8989C33.896 49.8643 33.284 41.8904 37.5559 36.1839L42.2916 29.8578C43.8413 27.7877 43.7523 25.2252 42.3556 23.5689C40.2394 21.0595 37.6472 18.3453 35.0373 16.4213ZM39.982 9.71354C43.3546 12.1997 46.4338 15.4784 48.7262 18.1968C52.9047 23.1519 52.5638 30.0415 48.9628 34.8518L44.227 41.178C42.4626 43.5349 42.6907 46.8739 44.8231 49.0063L49.1346 53.3178C51.267 55.4502 54.606 55.6783 56.9629 53.9139L63.2894 49.1779C68.0995 45.577 74.9888 45.2361 79.9439 49.414C82.6629 51.7066 85.9424 54.7862 88.4291 58.1594C90.7767 61.3438 93.1389 65.7539 92.232 70.397C91.6496 73.3786 90.7944 75.8187 89.4081 78.1585C88.0617 80.431 86.3125 82.4366 84.2176 84.6229C81.7898 87.1567 79.0221 89.6976 75.6576 91.3547C72.162 93.0764 68.2115 93.7546 63.6318 92.8866C54.9109 91.2337 44.1823 84.0007 29.1613 68.9796C14.1412 53.9594 6.95422 43.277 5.32959 34.5735C3.55869 25.0864 8.48818 18.9526 13.4549 13.986C17.5573 9.88354 21.4474 7.14017 27.7466 5.91084C32.3888 5.0049 36.798 7.36646 39.982 9.71354Z" fill="#0F1729"/>
</svg>
